<?xml version="1.0" encoding="UTF-8"?>
<svg width="935px" height="935px" viewBox="0 0 935 935" version="1.1" xmlns="http://www.w3.org/2000/svg">
    <title>iconfinder_037_010_structure_network_hierarchy_3171409</title>
    <g id="Page-1" stroke="none" stroke-width="1" fill="none" fill-rule="evenodd">
        <g id="iconfinder_037_010_structure_network_hierarchy_3171409" transform="translate(1.000000, 1.000000)">
            <circle id="Oval" stroke="#3F3D56" fill="#3F3D56" cx="466.5" cy="466.5" r="466.5"></circle>
            <polygon id="Rectangle" fill="#A5A5A5" fill-rule="nonzero"
                     points="305 417.539782 372.313077 384 504 646.460218 436.686923 680"></polygon>
            <polygon id="Path" fill="#A5A5A5" fill-rule="nonzero"
                     points="698.745195 687 467.540374 221.523697 241.405011 681.401811 174 648.263535 467.164859 52 766 653.523578"></polygon>
            <path d="M467,231 C518.914766,231 561,188.914766 561,137 C561,85.0852335 518.914766,43 467,43 C415.085234,43 373,85.0852335 373,137 C373,188.914766 415.085234,231 467,231 Z M204,569 C152.085234,569 110,611.085234 110,663 C110,714.914766 152.085234,757 204,757 C255.914766,757 298,714.914766 298,663 C298,611.085234 255.914766,569 204,569 Z M429,400 C429,348.085234 386.914766,306 335,306 C283.085234,306 241,348.085234 241,400 C241,451.914766 283.085234,494 335,494 C386.914766,494 429,451.914766 429,400 L429,400 Z M729,569 C677.085234,569 635,611.085234 635,663 C635,714.914766 677.085234,757 729,757 C780.914766,757 823,714.914766 823,663 C823,611.085234 780.914766,569 729,569 Z M692,400 C692,348.085234 649.914766,306 598,306 C546.085234,306 504,348.085234 504,400 C504,451.914766 546.085234,494 598,494 C649.914766,494 692,451.914766 692,400 Z M467,569 C415.085234,569 373,611.085234 373,663 C373,714.914766 415.085234,757 467,757 C518.914766,757 561,714.914766 561,663 C561,611.085234 518.914766,569 467,569 Z"
                  id="Shape" fill="#DADADA" fill-rule="nonzero"></path>
        </g>
    </g>
</svg>