<?xml version="1.0" encoding="UTF-8"?>
<svg width="138px" height="138px" viewBox="0 0 138 138" version="1.1" xmlns="http://www.w3.org/2000/svg">
    <title>iconfinder_GitHub_4745725</title>
    <g id="Page-1" stroke="none" stroke-width="1" fill="none" fill-rule="evenodd">
        <g id="iconfinder_GitHub_4745725" fill-rule="nonzero">
            <path d="M15.3333333,138 L122.666667,138 C131.135033,138 138,131.135033 138,122.666667 L138,15.3333333 C138,6.86496717 131.135033,0 122.666667,0 L15.3333333,0 C6.86496717,0 0,6.86496717 0,15.3333333 L0,122.666667 C0,131.135033 6.86496717,138 15.3333333,138 Z"
                  id="Path" fill="#3E75C3"></path>
            <path d="M68.997125,23 C43.5965,23 23,43.6561338 23,69.1425098 C23,89.5246895 36.179,106.818398 54.461125,112.920364 C56.761125,113.344271 57.600625,111.91971 57.600625,110.69701 C57.600625,109.601194 57.560375,106.700165 57.537375,102.85039 C44.74075,105.638954 42.041125,96.6647966 42.041125,96.6647966 C39.951,91.3356699 36.935125,89.9168764 36.935125,89.9168764 C32.75775,87.0533359 37.251375,87.1110104 37.251375,87.1110104 C41.86575,87.4368714 44.295125,91.8662754 44.295125,91.8662754 C48.400625,98.9169871 55.062,96.8810762 57.684,95.6987481 C58.100875,92.7169748 59.291125,90.6839475 60.605,89.530457 C50.390125,88.3654313 39.652,84.4089585 39.652,66.7288306 C39.652,61.6909602 41.443125,57.5729985 44.387125,54.3461084 C43.91275,53.1781991 42.334375,48.4892596 44.835625,42.1364099 C44.835625,42.1364099 48.699625,40.8964075 57.485625,46.8657215 C61.157,45.8419987 65.09,45.331579 69.002875,45.3113929 C72.91,45.331579 76.845875,45.8419987 80.520125,46.8657215 C89.300375,40.8964075 93.15575,42.1364099 93.15575,42.1364099 C95.665625,48.4892596 94.08725,53.1781991 93.612875,54.3461084 C96.562625,57.5729985 98.34225,61.6909602 98.34225,66.7288306 C98.34225,84.4522143 87.586875,88.3538966 77.340375,89.4958522 C78.990625,90.9204132 80.462625,93.7349303 80.462625,98.0403342 C80.462625,104.208626 80.405125,109.183054 80.405125,110.69701 C80.405125,111.931245 81.233125,113.367341 83.567625,112.914596 C101.8325,106.801096 115,89.5189221 115,69.1425098 C115,43.6561338 94.4035,23 68.997125,23"
                  id="Path" fill="#FFFFFF"></path>
        </g>
    </g>
</svg>