<?xml version="1.0" encoding="UTF-8"?>
<svg width="476px" height="80px" viewBox="0 0 476 80" version="1.1" xmlns="http://www.w3.org/2000/svg">
    <title>Group</title>
    <g id="Page-1" stroke="none" stroke-width="1" fill="none" fill-rule="evenodd">
        <g id="Group" fill-rule="nonzero">
            <g id="MANTL" fill="#000000">
                <path d="M357.37,0 L375.886,0 L375.886,64.914 L416,64.914 L416,80 L357.37,80 L357.37,0 Z M277.657,0 L347.371,0 L347.371,15.086 L321.771,15.086 L321.771,80 L303.257,80 L303.257,15.086 L277.657,15.086 L277.657,0 L277.657,0 Z M249.371,0 L267.657,0 L267.657,80 L252.457,80 L212.57,31.429 L212.57,80 L194.285,80 L194.285,0 L209.6,0 L249.37,48.571 L249.37,0 L249.371,0 Z M132.829,0 L151.114,0 L186.886,80 L167.457,80 L160.371,62.858 L123.229,62.858 L116.143,80 L97.172,80 L132.829,0 Z M141.857,18.172 L129.171,48.8 L154.542,48.8 L141.857,18.172 Z M74.743,0 L89.943,0 L90.172,80 L72.8,80 L72.686,32 L49.143,71.543 L40.8,71.543 L17.372,33.028 L17.372,80 L0,80 L0,0 L15.314,0 L45.257,49.714 L74.743,0 Z"
                      id="Shape"></path>
            </g>
            <g id="iconfinder_Open_Source_CMS_682680" transform="translate(416.000000, 0.000000)">
                <path d="M59.9825542,30 C58.6081929,38.7389815 55.9341638,41.293453 51.1985926,47.1642559 C46.4630215,52.138753 39.6509697,60.44452 30.0005629,59.9814287 C21.2614175,58.6070932 18.7068981,55.9331142 12.835985,51.197632 C7.86139448,46.4621497 -0.444528366,39.6502257 0.0185716486,30 C1.39293298,21.2610185 4.0669621,18.706547 8.80253322,12.8357441 C13.5381043,7.86124697 20.3501562,-0.444520025 30.0005629,0.0185713002 C38.7397084,1.39290685 41.2942278,4.06688579 47.1651409,8.80236805 C52.1397314,13.5527887 60.4307155,20.3497743 59.9825542,30 Z"
                      id="Path" fill="#3765AF"></path>
                <path d="M26.540157,9.28720834 C31.1889294,8.50342993 36.0619192,9.33242633 40.2024657,11.6686889 C44.3131165,13.9748062 47.6315329,17.682681 49.4103236,22.0989709 C51.2339578,26.5152608 51.5030186,31.5043119 50.1427669,36.0713284 C48.3639761,42.4018463 43.4461429,47.7074233 37.332484,49.9381773 C36.8242581,50.1793398 36.4356147,49.6668693 36.33098,49.2297621 C34.82125,45.1752161 33.2666766,41.0754521 31.8017901,37.0058334 C31.4579902,36.267273 32.3399117,35.9959651 32.8481376,35.7548025 C35.5237976,34.4736262 36.913945,31.142568 35.9871801,28.3390529 C35.3294759,26.0329356 33.2367809,24.2392889 30.8750252,23.922763 C28.1694695,23.5007284 25.3443313,25.0984306 24.2531403,27.5854198 C23.2067928,29.8463191 23.7150188,32.6950521 25.448966,34.4886989 C26.1515136,35.2724773 27.0782786,35.6945118 27.9602,36.1617644 C28.3488434,36.4029269 28.2292608,36.9003248 28.0797826,37.2620687 C26.5700526,41.2864694 25.1051661,45.3410154 23.5505927,49.3654161 C23.4310102,49.7120873 23.0872103,50.1039765 22.6985669,49.9532499 C15.2993954,47.3306068 9.79859712,40.1861651 9.11099734,32.3483809 C8.57287577,27.1935306 10.0078666,21.8427356 13.0572222,17.6676083 C16.2710038,13.2663911 21.188837,10.1764954 26.540157,9.28720834 L26.540157,9.28720834 Z"
                      id="Path" fill="#FFFFFF"></path>
                <path d="M26.0843565,10.5294219 C29.9370124,9.59303503 34.0574205,9.91019832 37.7166999,11.3902937 C41.9114835,13.0667283 45.4963873,16.3138763 47.6532797,20.3463811 C49.5870452,23.9408985 50.3456763,28.1244334 49.8547973,32.2022472 C49.3490433,36.3555761 47.5045285,40.2974628 44.6485055,43.3482716 C42.8039907,45.3418695 40.4834721,46.912583 38.0142022,48 C36.6308161,44.2393495 35.2028047,40.524008 33.8937942,36.7331514 C36.1250621,35.5551163 37.7910755,33.3349733 38.0885778,30.7825639 C38.6240821,27.3390766 36.4671898,23.6992502 33.2392889,22.5212151 C30.2791401,21.312974 26.6049856,22.2795669 24.6117196,24.8319763 C22.6779541,27.1427375 22.3060761,30.6617398 23.7192125,33.3198702 C24.4480933,34.7999656 25.7273536,35.9477947 27.1553651,36.7633575 C25.7719789,40.524008 24.3737177,44.2393495 22.9903316,47.984897 C19.182301,46.3839775 15.8948996,43.4841988 13.7826327,39.8896814 C11.9678681,36.8841816 11.0009853,33.3198702 11.0009853,29.800868 C10.95636,25.4209939 12.4289968,21.0411197 15.1213934,17.5976325 C17.8732905,14.0786302 21.7705718,11.5413239 26.0843565,10.5294219 L26.0843565,10.5294219 Z"
                      id="Path" fill="#FFFFFF"></path>
            </g>
        </g>
    </g>
</svg>