<?xml version="1.0" encoding="UTF-8"?>
<svg width="416px" height="80px" viewBox="0 0 416 80" version="1.1" xmlns="http://www.w3.org/2000/svg">
    <title>MANTL</title>
    <g id="Page-1" stroke="none" stroke-width="1" fill="none" fill-rule="evenodd">
        <g id="MANTL" fill="#000000" fill-rule="nonzero">
            <path d="M357.37,0 L375.886,0 L375.886,64.914 L416,64.914 L416,80 L357.37,80 L357.37,0 Z M277.657,0 L347.371,0 L347.371,15.086 L321.771,15.086 L321.771,80 L303.257,80 L303.257,15.086 L277.657,15.086 L277.657,0 L277.657,0 Z M249.371,0 L267.657,0 L267.657,80 L252.457,80 L212.57,31.429 L212.57,80 L194.285,80 L194.285,0 L209.6,0 L249.37,48.571 L249.37,0 L249.371,0 Z M132.829,0 L151.114,0 L186.886,80 L167.457,80 L160.371,62.858 L123.229,62.858 L116.143,80 L97.172,80 L132.829,0 Z M141.857,18.172 L129.171,48.8 L154.542,48.8 L141.857,18.172 Z M74.743,0 L89.943,0 L90.172,80 L72.8,80 L72.686,32 L49.143,71.543 L40.8,71.543 L17.372,33.028 L17.372,80 L0,80 L0,0 L15.314,0 L45.257,49.714 L74.743,0 Z"
                  id="Shape"></path>
        </g>
    </g>
</svg>