<?xml version="1.0" encoding="UTF-8"?>
<svg width="476px" height="80px" viewBox="0 0 476 80" version="1.1" xmlns="http://www.w3.org/2000/svg">
    <title>Group</title>
    <g id="Page-1" stroke="none" stroke-width="1" fill="none" fill-rule="evenodd">
        <g id="Group" fill-rule="nonzero">
            <g id="MANTL" fill="#B6B6B6">
                <path d="M357.37,0 L375.886,0 L375.886,64.914 L416,64.914 L416,80 L357.37,80 L357.37,0 Z M277.657,0 L347.371,0 L347.371,15.086 L321.771,15.086 L321.771,80 L303.257,80 L303.257,15.086 L277.657,15.086 L277.657,0 L277.657,0 Z M249.371,0 L267.657,0 L267.657,80 L252.457,80 L212.57,31.429 L212.57,80 L194.285,80 L194.285,0 L209.6,0 L249.37,48.571 L249.37,0 L249.371,0 Z M132.829,0 L151.114,0 L186.886,80 L167.457,80 L160.371,62.858 L123.229,62.858 L116.143,80 L97.172,80 L132.829,0 Z M141.857,18.172 L129.171,48.8 L154.542,48.8 L141.857,18.172 Z M74.743,0 L89.943,0 L90.172,80 L72.8,80 L72.686,32 L49.143,71.543 L40.8,71.543 L17.372,33.028 L17.372,80 L0,80 L0,0 L15.314,0 L45.257,49.714 L74.743,0 Z"
                      id="Shape"></path>
            </g>
            <g id="iconfinder_Open_Source_CMS_682680" transform="translate(416.000000, 0.000000)">
                <path d="M59.9825542,30 C58.6081929,38.7389815 55.9341638,41.293453 51.1985926,47.1642559 C46.4630215,52.138753 39.6509697,60.44452 30.0005629,59.9814287 C21.2614175,58.6070932 18.7068981,55.9331142 12.835985,51.197632 C7.86139448,46.4621497 -0.444528366,39.6502257 0.0185716486,30 C1.39293298,21.2610185 4.0669621,18.706547 8.80253322,12.8357441 C13.5381043,7.86124697 20.3501562,-0.444520025 30.0005629,0.0185713002 C38.7397084,1.39290685 41.2942278,4.06688579 47.1651409,8.80236805 C52.1397314,13.5527887 60.4307155,20.3497743 59.9825542,30 Z"
                      id="Path" fill="#B6B6B6"></path>
                <path d="M27.540157,8.28720834 C32.1889294,7.50342993 37.0619192,8.33242633 41.2024657,10.6686889 C45.3131165,12.9748062 48.6315329,16.682681 50.4103236,21.0989709 C52.2339578,25.5152608 52.5030186,30.5043119 51.1427669,35.0713284 C49.3639761,41.4018463 44.4461429,46.7074233 38.332484,48.9381773 C37.8242581,49.1793398 37.4356147,48.6668693 37.33098,48.2297621 C35.82125,44.1752161 34.2666766,40.0754521 32.8017901,36.0058334 C32.4579902,35.267273 33.3399117,34.9959651 33.8481376,34.7548025 C36.5237976,33.4736262 37.913945,30.142568 36.9871801,27.3390529 C36.3294759,25.0329356 34.2367809,23.2392889 31.8750252,22.922763 C29.1694695,22.5007284 26.3443313,24.0984306 25.2531403,26.5854198 C24.2067928,28.8463191 24.7150188,31.6950521 26.448966,33.4886989 C27.1515136,34.2724773 28.0782786,34.6945118 28.9602,35.1617644 C29.3488434,35.4029269 29.2292608,35.9003248 29.0797826,36.2620687 C27.5700526,40.2864694 26.1051661,44.3410154 24.5505927,48.3654161 C24.4310102,48.7120873 24.0872103,49.1039765 23.6985669,48.9532499 C16.2993954,46.3306068 10.7985971,39.1861651 10.1109973,31.3483809 C9.57287577,26.1935306 11.0078666,20.8427356 14.0572222,16.6676083 C17.2710038,12.2663911 22.188837,9.17649539 27.540157,8.28720834 L27.540157,8.28720834 Z"
                      id="Path" fill="#252526"></path>
                <path d="M26.0843565,11.5154897 C29.9370124,10.6037446 34.0574205,10.9125615 37.7166999,12.353707 C41.9114835,13.9860249 45.4963873,17.1477217 47.6532797,21.0741079 C49.5870452,24.5740327 50.3456763,28.6474746 49.8547973,32.6179775 C49.3490433,36.6620083 47.5045285,40.5001611 44.6485055,43.4706855 C42.8039907,45.4118203 40.4834721,46.9411992 38.0142022,48 C36.6308161,44.338314 35.2028047,40.7207446 33.8937942,37.0296475 C36.1250621,35.8826133 37.7910755,33.720895 38.0885778,31.2356543 C38.6240821,27.8827852 36.4671898,24.3387437 33.2392889,23.1917095 C30.2791401,22.0152642 26.6049856,22.9564204 24.6117196,25.4416611 C22.6779541,27.6916128 22.3060761,31.1180098 23.7192125,33.7061895 C24.4480933,35.147335 25.7273536,36.264958 27.1553651,37.0590586 C25.7719789,40.7207446 24.3737177,44.338314 22.9903316,47.9852944 C19.182301,46.4265044 15.8948996,43.6030356 13.7826327,40.1031108 C11.9678681,37.1767031 11.0009853,33.7061895 11.0009853,30.2797925 C10.95636,26.0151782 12.4289968,21.750564 15.1213934,18.3976948 C17.8732905,14.9712979 21.7705718,12.5007627 26.0843565,11.5154897 L26.0843565,11.5154897 Z"
                      id="Path" fill="#252526"></path>
            </g>
        </g>
    </g>
</svg>